<svg width="204" height="158" viewBox="0 0 204 158" fill="none" xmlns="http://www.w3.org/2000/svg">
<path d="M203.211 0.739532V32.5131C203.175 65.7214 189.837 97.5593 166.124 121.041C142.41 144.523 110.258 157.731 76.7222 157.766V132.749C103.555 132.714 129.277 122.141 148.247 103.349C167.218 84.5582 177.886 59.0834 177.914 32.5131V0.739532H203.211Z" fill="white"/>
<path d="M152.616 21.5503V32.5131C152.195 52.1732 144.012 70.8875 129.822 84.6443C115.632 98.401 96.5636 106.105 76.7051 106.105C56.8465 106.105 37.7783 98.401 23.5882 84.6443C9.39803 70.8875 1.21542 52.1732 0.794495 32.5131L0.794495 21.5503H26.0582V32.5131C25.9347 39.1777 27.1537 45.7999 29.6439 51.9928C32.1341 58.1856 35.8456 63.825 40.5616 68.5814C45.2777 73.3379 50.9036 77.116 57.1108 79.6951C63.3181 82.2742 69.9821 83.6025 76.7136 83.6025C83.4451 83.6025 90.1091 82.2742 96.3164 79.6951C102.524 77.116 108.15 73.3379 112.866 68.5814C117.582 63.825 121.293 58.1856 123.783 51.9928C126.274 45.7999 127.492 39.1777 127.369 32.5131V21.5503H152.616Z" fill="#FFCC30"/>
</svg>
